<?xml version="1.0" encoding="iso-8859-1"?>
<!-- Generator: Adobe Illustrator 19.0.0, SVG Export Plug-In . SVG Version: 6.00 Build 0)  -->
<svg version="1.1" id="Capa_1" xmlns="http://www.w3.org/2000/svg" xmlns:xlink="http://www.w3.org/1999/xlink" x="0px" y="0px"
	 viewBox="0 0 512 512" style="enable-background:new 0 0 512 512;" xml:space="preserve">
<g>
	<g>
		<path d="M512,225c0-30.734-28.607-58.326-80.554-77.694c-4.75-1.771-9.658-3.458-14.701-5.067l-14.311-71.551
			C394.243,29.729,357.98,0,316.21,0C293.639,0,272.365,8.447,256,23.846C239.635,8.447,218.361,0,195.79,0
			c-41.771,0-78.033,29.729-86.225,70.688L95.254,142.24c-5.043,1.609-9.952,3.296-14.701,5.067C28.607,166.674,0,194.266,0,225
			c0,14.215,6.232,34.444,33.852,54.113C31.328,285.718,30,292.762,30,300c0,33.424,28.112,60,61,60h0.675
			C99.127,443.835,169.394,512,256,512c86.567,0,156.869-68.121,164.325-152H421c32.894,0,61-26.584,61-60
			c0-7.238-1.328-14.282-3.852-20.887C505.768,259.444,512,239.215,512,225z M138.983,76.571C144.38,49.586,168.271,30,195.79,30
			c15.475,0,30.022,6.026,40.965,16.968L256,66.213l19.245-19.245C286.188,36.026,300.735,30,316.21,30
			c27.52,0,51.41,19.586,56.807,46.571l11.38,56.897C345.91,124.693,301.83,120,256,120c-45.83,0-89.911,4.693-128.396,13.469
			L138.983,76.571z M91,330c-16.804,0-31-13.738-31-30c0-16.262,14.196-30,31-30C91,287.847,91,311.78,91,330z M301,474.164
			c-14.082,5.068-29.228,7.836-45,7.836c-15.772,0-30.918-2.769-45-7.836V420h90V474.164z M391.001,345
			C391,392.399,367.154,434.25,331,458.856V390H181v68.856C144.846,434.25,121,392.399,121,345v-0.041
			C133.544,354.397,149.129,360,166,360c36.22,0,66.522-25.808,73.491-60h33.019c6.968,34.192,37.271,60,73.491,60
			c16.871,0,32.456-5.603,45-15.041V345z M121,270c0-8.752,0-25.914,0-34.867C141.339,227.446,194.302,210,256,210
			c61.487,0,114.616,17.467,135,25.146c0,8.9,0,25.918,0,34.854C357.34,270,151.635,270,121,270z M388.43,300
			c-6.19,17.461-22.873,30-42.43,30s-36.239-12.539-42.43-30H388.43z M208.43,300c-6.19,17.461-22.873,30-42.43,30
			s-36.239-12.539-42.43-30H208.43z M421,330c0-18.228,0-42.154,0-60c16.804,0,31,13.738,31,30C452,316.262,437.804,330,421,330z
			 M460.744,254.688C449.607,245.197,435.65,240,421,240v-24.728C366.434,191.195,307.876,180,256,180
			c-51.667,0-110.178,11.082-165,35.272V240c-14.65,0-28.607,5.197-39.744,14.688C37.468,244.885,30,234.551,30,225
			c0-16.799,22.816-35.335,61.034-49.585C134.991,159.026,193.576,150,256,150s121.009,9.026,164.966,25.415
			C459.184,189.665,482,208.201,482,225C482,234.551,474.532,244.885,460.744,254.688z"/>
	</g>
</g>
<g>
</g>
<g>
</g>
<g>
</g>
<g>
</g>
<g>
</g>
<g>
</g>
<g>
</g>
<g>
</g>
<g>
</g>
<g>
</g>
<g>
</g>
<g>
</g>
<g>
</g>
<g>
</g>
<g>
</g>
</svg>
